999
FreeCAD v0.21 33668 +7 (Git)
  0
SECTION
  2
HEADER
  9
$ACADVER
  1
AC1014
  9
$ACADMAINTVER
 70
     9
  9
$DWGCODEPAGE
  3
ANSI_1252
  9
$TEXTSTYLE
  7
STANDARD
  9
$DIMSTYLE
  2
STANDARD
  9
$DIMTXSTY
  7
STANDARD
  9
$CMLSTYLE
  2
STANDARD
  9
$LUNITS
 70
2
  9
$INSUNITS
 70
4
  9
$PEXTMAX
 10
50
 20
50
 30
50
  9
$PEXTMIN
 10
0
 20
0
 30
0
  9
$HANDSEED
  5
FFFF
  0
ENDSEC
  0
SECTION
  2
CLASSES
  0
CLASS
  1
ACDBDICTIONARYWDFLT
  2
AcDbDictionaryWithDefault
  3
ObjectDBX Classes
 90
        0
280
     0
281
     0
  0
CLASS
  1
XRECORD
  2
AcDbXrecord
  3
ObjectDBX Classes
 90
        0
280
     0
281
     0
  0
CLASS
  1
LWPOLYLINE
  2
AcDbPolyline
  3
ObjectDBX Classes
 90
        0
280
     0
281
     1
  0
ENDSEC
  0
SECTION
  2
TABLES
  0
TABLE
  2
VPORT
  5
20
330
0
100
AcDbSymbolTable
 70
     1
  0
VPORT
  5
21
330
20
100
AcDbSymbolTableRecord
100
AcDbViewportTableRecord
  2
*ACTIVE
 70
     0
  0
ENDTAB
  0
TABLE
  2
LTYPE
  5
22
330
0
100
AcDbSymbolTable
 70
     1
  0
LTYPE
  5
23
330
21
100
AcDbSymbolTableRecord
100
AcDbLinetypeTableRecord
  2
BYBLOCK
 70
     0
  3

 72
    65
 73
     0
 40
0.0
  0
LTYPE
  5
24
330
21
100
AcDbSymbolTableRecord
100
AcDbLinetypeTableRecord
  2
BYLAYER
 70
     0
  3

 72
    65
 73
     0
 40
0.0
  0
LTYPE
  5
25
330
21
100
AcDbSymbolTableRecord
100
AcDbLinetypeTableRecord
  2
CONTINUOUS
 70
     0
  3
Solid line
 72
    65
 73
     0
 40
0.0
  0
ENDTAB
  0
TABLE
  2
LAYER
  5
A6C
330
0
100
AcDbSymbolTable
 70
11
  0
LAYER
  5
A6D
330
A6C
100
AcDbSymbolTableRecord
100
AcDbLayerTableRecord
  2
0
 70
   0
 62
   7
  6
CONTINUOUS
  0
LAYER
  5
A6E
330
A6C
100
AcDbSymbolTableRecord
100
AcDbLayerTableRecord
  2
ProjItem
 70
    0
 62
    7
  6
CONTINUOUS
  0
LAYER
  5
A6F
330
A6C
100
AcDbSymbolTableRecord
100
AcDbLayerTableRecord
  2
ProjItem001
 70
    0
 62
    7
  6
CONTINUOUS
  0
LAYER
  5
A70
330
A6C
100
AcDbSymbolTableRecord
100
AcDbLayerTableRecord
  2
ProjItem002
 70
    0
 62
    7
  6
CONTINUOUS
  0
LAYER
  5
A71
330
A6C
100
AcDbSymbolTableRecord
100
AcDbLayerTableRecord
  2
ProjItem003
 70
    0
 62
    7
  6
CONTINUOUS
  0
LAYER
  5
A72
330
A6C
100
AcDbSymbolTableRecord
100
AcDbLayerTableRecord
  2
Dimension
 70
    0
 62
    7
  6
CONTINUOUS
  0
LAYER
  5
A73
330
A6C
100
AcDbSymbolTableRecord
100
AcDbLayerTableRecord
  2
Dimension001
 70
    0
 62
    7
  6
CONTINUOUS
  0
LAYER
  5
A74
330
A6C
100
AcDbSymbolTableRecord
100
AcDbLayerTableRecord
  2
Dimension002
 70
    0
 62
    7
  6
CONTINUOUS
  0
LAYER
  5
A75
330
A6C
100
AcDbSymbolTableRecord
100
AcDbLayerTableRecord
  2
Dimension003
 70
    0
 62
    7
  6
CONTINUOUS
  0
LAYER
  5
A76
330
A6C
100
AcDbSymbolTableRecord
100
AcDbLayerTableRecord
  2
Dimension004
 70
    0
 62
    7
  6
CONTINUOUS
  0
LAYER
  5
A77
330
A6C
100
AcDbSymbolTableRecord
100
AcDbLayerTableRecord
  2
Dimension005
 70
    0
 62
    7
  6
CONTINUOUS
  0
ENDTAB
  0
TABLE
  2
STYLE
  5
70
330
0
100
AcDbSymbolTable
 70
     2
  0
STYLE
  5
71
330
70
100
AcDbSymbolTableRecord
100
AcDbTextStyleTableRecord
  2
STANDARD
 70
     0
 40
0.0
 41
1.0
 50
0.0
 71
     0
 42
2.5
  3
arial.ttf
  4

  0
STYLE
  5
72
330
70
100
AcDbSymbolTableRecord
100
AcDbTextStyleTableRecord
  2
ANNOTATIVE
 70
     0
 40
0.0
 41
1.0
 50
0.0
 71
     0
 42
2.5
  3
arial.ttf
  4

  0
ENDTAB
  0
TABLE
  2
VIEW
  5
73
330
0
100
AcDbSymbolTable
 70
     0
  0
ENDTAB
  0
TABLE
  2
UCS
  5
74
330
0
100
AcDbSymbolTable
 70
     0
  0
ENDTAB
  0
TABLE
  2
APPID
  5
75
330
0
100
AcDbSymbolTable
 70
     2
  0
APPID
  5
76
330
75
100
AcDbSymbolTableRecord
100
AcDbRegAppTableRecord
  2
ACAD
 70
     0
  0
APPID
  5
77
330
75
100
AcDbSymbolTableRecord
100
AcDbRegAppTableRecord
  2
ACADANNOTATIVE
 70
     0
  0
ENDTAB
  0
TABLE
  2
DIMSTYLE
  5
78
330
0
100
AcDbSymbolTable
 70
     2
  0
DIMSTYLE
105
79
330
78
100
AcDbSymbolTableRecord
100
AcDbDimStyleTableRecord
  2
STANDARD
 70
     0
  3

  4

  5

  6

  7

 40
0.0
 41
2.5
 42
0.625
 43
3.75
 44
1.25
 45
0.0
 46
0.0
 47
0.0
 48
0.0
140
2.5
141
2.5
142
0.0
143
0.03937007874016
144
1.0
145
0.0
146
1.0
147
0.625
 71
     0
 72
     0
 73
     0
 74
     0
 75
     0
 76
     0
 77
     1
 78
     8
170
     0
171
     3
172
     1
173
     0
174
     0
175
     0
176
     0
177
     0
178
     0
270
     2
271
     2
272
     2
273
     2
274
     3
340
71
275
     0
280
     0
281
     0
282
     0
283
     0
284
     8
285
     0
286
     0
287
     3
288
     0
  0
ENDTAB
  0
TABLE
  2
BLOCK_RECORD
  5
A01
330
0
100
AcDbSymbolTable
  70
5
  0
BLOCK_RECORD
  5
A02
330
A01
100
AcDbSymbolTableRecord
100
AcDbBlockTableRecord
  2
*MODEL_SPACE
  0
BLOCK_RECORD
  5
A03
330
A01
100
AcDbSymbolTableRecord
100
AcDbBlockTableRecord
  2
*PAPER_SPACE
  0
BLOCK_RECORD
  5
A31
330
A01
100
AcDbSymbolTableRecord
100
AcDbBlockTableRecord
  2
*Dimension
  0
BLOCK_RECORD
  5
A3B
330
A01
100
AcDbSymbolTableRecord
100
AcDbBlockTableRecord
  2
*Dimension001
  0
BLOCK_RECORD
  5
A45
330
A01
100
AcDbSymbolTableRecord
100
AcDbBlockTableRecord
  2
*Dimension002
  0
BLOCK_RECORD
  5
A4F
330
A01
100
AcDbSymbolTableRecord
100
AcDbBlockTableRecord
  2
*Dimension003
  0
BLOCK_RECORD
  5
A59
330
A01
100
AcDbSymbolTableRecord
100
AcDbBlockTableRecord
  2
*Dimension004
  0
BLOCK_RECORD
  5
A63
330
A01
100
AcDbSymbolTableRecord
100
AcDbBlockTableRecord
  2
*Dimension005
  0
ENDTAB
  0
ENDSEC
  0
SECTION
  2
BLOCKS
  0
BLOCK
  5
A04
330
A02
100
AcDbEntity
  8
0
100
AcDbBlockBegin
  2
*MODEL_SPACE
 70
   0
 10
0
 20
0
 30
0
  3
*MODEL_SPACE
  1
 
  0
ENDBLK
  5
A05
330
A02
100
AcDbEntity
  8
0
100
AcDbBlockEnd
  0
BLOCK
  5
A06
330
A03
100
AcDbEntity
 67
1
  8
0
100
AcDbBlockBegin
  2
*PAPER_SPACE
 70
   0
 10
0
 20
0
 30
0
  3
*PAPER_SPACE
  1
 
  0
ENDBLK
  5
A07
330
A03
100
AcDbEntity
 67
    1
  8
0
100
AcDbBlockEnd
  0
BLOCK
  5
A32
330
A31
100
AcDbEntity
  8
Dimension
100
AcDbBlockBegin
  2
*Dimension
 70
   1
 10
0
 20
0
 30
0
  3
*Dimension
  1
 
  0
LINE
  5
A33
330
A31
100
AcDbEntity
  8
Dimension
100
AcDbLine
 10
139.424
 20
260.482
 30
0
 11
139.424
 21
276.609
 31
0
  0
LINE
  5
A34
330
A31
100
AcDbEntity
  8
Dimension
100
AcDbLine
 10
129.424
 20
260.482
 30
0
 11
129.424
 21
276.609
 31
0
  0
LINE
  5
A35
330
A31
100
AcDbEntity
  8
Dimension
100
AcDbLine
 10
129.424
 20
276.609
 30
0
 11
139.424
 21
276.609
 31
0
  0
TEXT
  5
A36
330
A31
100
AcDbEntity
  8
Dimension
100
AcDbText
 10
133.924
 20
281.609
 30
0
 40
3.5
  1
1
  7
STANDARD
 72
1
 11
133.924
 21
276.609
 31
0
100
AcDbText
  0
SOLID
  5
A37
330
A31
100
AcDbEntity
  8
0
 62
     0
100
AcDbTrace
 10
124.424
 20
277.026
 30
0
 11
124.424
 21
276.193
 31
0
 12
129.424
 22
276.609
 32
0
 13
129.424
 23
276.609
 33
0
  0
SOLID
  5
A38
330
A31
100
AcDbEntity
  8
0
 62
     0
100
AcDbTrace
 10
144.424
 20
277.026
 30
0
 11
144.424
 21
276.193
 31
0
 12
139.424
 22
276.609
 32
0
 13
139.424
 23
276.609
 33
0
  0
ENDBLK
  5
A39
330
A31
100
AcDbEntity
  8
Dimension
100
AcDbBlockEnd
  0
BLOCK
  5
A3C
330
A3B
100
AcDbEntity
  8
Dimension001
100
AcDbBlockBegin
  2
*Dimension001
 70
   1
 10
0
 20
0
 30
0
  3
*Dimension001
  1
 
  0
LINE
  5
A3D
330
A3B
100
AcDbEntity
  8
Dimension001
100
AcDbLine
 10
129.424
 20
200.482
 30
0
 11
104.014
 21
200.482
 31
0
  0
LINE
  5
A3E
330
A3B
100
AcDbEntity
  8
Dimension001
100
AcDbLine
 10
129.424
 20
260.482
 30
0
 11
104.014
 21
260.482
 31
0
  0
LINE
  5
A3F
330
A3B
100
AcDbEntity
  8
Dimension001
100
AcDbLine
 10
104.014
 20
260.482
 30
0
 11
104.014
 21
200.482
 31
0
  0
TEXT
  5
A40
330
A3B
100
AcDbEntity
  8
Dimension001
100
AcDbText
 10
99.0136
 20
233.387
 30
0
 40
3.5
  1
6
  7
STANDARD
 72
1
 11
104.014
 21
233.387
 31
0
100
AcDbText
  0
SOLID
  5
A41
330
A3B
100
AcDbEntity
  8
0
 62
     0
100
AcDbTrace
 10
103.597
 20
265.482
 30
0
 11
104.43
 21
265.482
 31
0
 12
104.014
 22
260.482
 32
0
 13
104.014
 23
260.482
 33
0
  0
SOLID
  5
A42
330
A3B
100
AcDbEntity
  8
0
 62
     0
100
AcDbTrace
 10
103.597
 20
195.482
 30
0
 11
104.43
 21
195.482
 31
0
 12
104.014
 22
200.482
 32
0
 13
104.014
 23
200.482
 33
0
  0
ENDBLK
  5
A43
330
A3B
100
AcDbEntity
  8
Dimension001
100
AcDbBlockEnd
  0
BLOCK
  5
A46
330
A45
100
AcDbEntity
  8
Dimension002
100
AcDbBlockBegin
  2
*Dimension002
 70
   1
 10
0
 20
0
 30
0
  3
*Dimension002
  1
 
  0
LINE
  5
A47
330
A45
100
AcDbEntity
  8
Dimension002
100
AcDbLine
 10
124.424
 20
160.482
 30
0
 11
104.285
 21
160.482
 31
0
  0
LINE
  5
A48
330
A45
100
AcDbEntity
  8
Dimension002
100
AcDbLine
 10
124.424
 20
200.482
 30
0
 11
104.285
 21
200.482
 31
0
  0
LINE
  5
A49
330
A45
100
AcDbEntity
  8
Dimension002
100
AcDbLine
 10
104.285
 20
200.482
 30
0
 11
104.285
 21
160.482
 31
0
  0
TEXT
  5
A4A
330
A45
100
AcDbEntity
  8
Dimension002
100
AcDbText
 10
99.2847
 20
181.765
 30
0
 40
3.5
  1
4
  7
STANDARD
 72
1
 11
104.285
 21
181.765
 31
0
100
AcDbText
  0
SOLID
  5
A4B
330
A45
100
AcDbEntity
  8
0
 62
     0
100
AcDbTrace
 10
103.868
 20
205.482
 30
0
 11
104.701
 21
205.482
 31
0
 12
104.285
 22
200.482
 32
0
 13
104.285
 23
200.482
 33
0
  0
SOLID
  5
A4C
330
A45
100
AcDbEntity
  8
0
 62
     0
100
AcDbTrace
 10
103.868
 20
155.482
 30
0
 11
104.701
 21
155.482
 31
0
 12
104.285
 22
160.482
 32
0
 13
104.285
 23
160.482
 33
0
  0
ENDBLK
  5
A4D
330
A45
100
AcDbEntity
  8
Dimension002
100
AcDbBlockEnd
  0
BLOCK
  5
A50
330
A4F
100
AcDbEntity
  8
Dimension003
100
AcDbBlockBegin
  2
*Dimension003
 70
   1
 10
0
 20
0
 30
0
  3
*Dimension003
  1
 
  0
LINE
  5
A51
330
A4F
100
AcDbEntity
  8
Dimension003
100
AcDbLine
 10
129.424
 20
130.482
 30
0
 11
104.419
 21
130.482
 31
0
  0
LINE
  5
A52
330
A4F
100
AcDbEntity
  8
Dimension003
100
AcDbLine
 10
129.424
 20
160.482
 30
0
 11
104.419
 21
160.482
 31
0
  0
LINE
  5
A53
330
A4F
100
AcDbEntity
  8
Dimension003
100
AcDbLine
 10
104.419
 20
160.482
 30
0
 11
104.419
 21
130.482
 31
0
  0
TEXT
  5
A54
330
A4F
100
AcDbEntity
  8
Dimension003
100
AcDbText
 10
99.4191
 20
144.332
 30
0
 40
3.5
  1
3
  7
STANDARD
 72
1
 11
104.419
 21
144.332
 31
0
100
AcDbText
  0
SOLID
  5
A55
330
A4F
100
AcDbEntity
  8
0
 62
     0
100
AcDbTrace
 10
104.002
 20
165.482
 30
0
 11
104.836
 21
165.482
 31
0
 12
104.419
 22
160.482
 32
0
 13
104.419
 23
160.482
 33
0
  0
SOLID
  5
A56
330
A4F
100
AcDbEntity
  8
0
 62
     0
100
AcDbTrace
 10
104.002
 20
125.482
 30
0
 11
104.836
 21
125.482
 31
0
 12
104.419
 22
130.482
 32
0
 13
104.419
 23
130.482
 33
0
  0
ENDBLK
  5
A57
330
A4F
100
AcDbEntity
  8
Dimension003
100
AcDbBlockEnd
  0
BLOCK
  5
A5A
330
A59
100
AcDbEntity
  8
Dimension004
100
AcDbBlockBegin
  2
*Dimension004
 70
   1
 10
0
 20
0
 30
0
  3
*Dimension004
  1
 
  0
LINE
  5
A5B
330
A59
100
AcDbEntity
  8
Dimension004
100
AcDbLine
 10
139.424
 20
130.482
 30
0
 11
139.424
 21
108.114
 31
0
  0
LINE
  5
A5C
330
A59
100
AcDbEntity
  8
Dimension004
100
AcDbLine
 10
129.424
 20
130.482
 30
0
 11
129.424
 21
108.114
 31
0
  0
LINE
  5
A5D
330
A59
100
AcDbEntity
  8
Dimension004
100
AcDbLine
 10
129.424
 20
108.114
 30
0
 11
139.424
 21
108.114
 31
0
  0
TEXT
  5
A5E
330
A59
100
AcDbEntity
  8
Dimension004
100
AcDbText
 10
134.018
 20
113.114
 30
0
 40
3.5
  1
1
  7
STANDARD
 72
1
 11
134.018
 21
108.114
 31
0
100
AcDbText
  0
SOLID
  5
A5F
330
A59
100
AcDbEntity
  8
0
 62
     0
100
AcDbTrace
 10
124.424
 20
107.697
 30
0
 11
124.424
 21
108.53
 31
0
 12
129.424
 22
108.114
 32
0
 13
129.424
 23
108.114
 33
0
  0
SOLID
  5
A60
330
A59
100
AcDbEntity
  8
0
 62
     0
100
AcDbTrace
 10
144.424
 20
107.697
 30
0
 11
144.424
 21
108.53
 31
0
 12
139.424
 22
108.114
 32
0
 13
139.424
 23
108.114
 33
0
  0
ENDBLK
  5
A61
330
A59
100
AcDbEntity
  8
Dimension004
100
AcDbBlockEnd
  0
BLOCK
  5
A64
330
A63
100
AcDbEntity
  8
Dimension005
100
AcDbBlockBegin
  2
*Dimension005
 70
   1
 10
0
 20
0
 30
0
  3
*Dimension005
  1
 
  0
LINE
  5
A65
330
A63
100
AcDbEntity
  8
Dimension005
100
AcDbLine
 10
144.424
 20
200.482
 30
0
 11
144.424
 21
285.591
 31
0
  0
LINE
  5
A66
330
A63
100
AcDbEntity
  8
Dimension005
100
AcDbLine
 10
124.424
 20
200.482
 30
0
 11
124.424
 21
285.591
 31
0
  0
LINE
  5
A67
330
A63
100
AcDbEntity
  8
Dimension005
100
AcDbLine
 10
124.424
 20
285.591
 30
0
 11
144.424
 21
285.591
 31
0
  0
TEXT
  5
A68
330
A63
100
AcDbEntity
  8
Dimension005
100
AcDbText
 10
133.981
 20
290.591
 30
0
 40
3.5
  1
2
  7
STANDARD
 72
1
 11
133.981
 21
285.591
 31
0
100
AcDbText
  0
SOLID
  5
A69
330
A63
100
AcDbEntity
  8
0
 62
     0
100
AcDbTrace
 10
119.424
 20
286.008
 30
0
 11
119.424
 21
285.175
 31
0
 12
124.424
 22
285.591
 32
0
 13
124.424
 23
285.591
 33
0
  0
SOLID
  5
A6A
330
A63
100
AcDbEntity
  8
0
 62
     0
100
AcDbTrace
 10
149.424
 20
286.008
 30
0
 11
149.424
 21
285.175
 31
0
 12
144.424
 22
285.591
 32
0
 13
144.424
 23
285.591
 33
0
  0
ENDBLK
  5
A6B
330
A63
100
AcDbEntity
  8
Dimension005
100
AcDbBlockEnd
  0
ENDSEC
  0
SECTION
  2
ENTITIES
  0
CIRCLE
  5
A08
330
A02
100
AcDbEntity
  8
ProjItem
100
AcDbCircle
 10
134.424
 20
85.0594
 40
10
  0
CIRCLE
  5
A09
330
A02
100
AcDbEntity
  8
ProjItem
100
AcDbCircle
 10
134.424
 20
85.0594
 40
5
  0
LINE
  5
A0A
330
A02
100
AcDbEntity
  8
ProjItem001
100
AcDbLine
 10
144.424
 20
160.482
 30
0
 11
144.424
 21
200.482
 31
0
  0
SPLINE
  5
A0B
330
A02
100
AcDbEntity
  8
ProjItem001
100
AcDbSpline
210
0
220
0
230
1
 70
8
 71
1
 72
17
 73
15
 74
0
 40
3.14159
 40
3.14159
 40
3.36599
 40
3.59039
 40
3.81479
 40
4.03919
 40
4.26359
 40
4.48799
 40
4.71239
 40
4.93679
 40
5.16119
 40
5.38559
 40
5.60999
 40
5.83439
 40
6.05879
 40
6.28319
 40
6.28319
 10
124.424
 20
160.482
 30
0
 10
124.674
 20
160.482
 30
0
 10
125.414
 20
160.482
 30
0
 10
126.605
 20
160.482
 30
0
 10
128.189
 20
160.482
 30
0
 10
130.085
 20
160.482
 30
0
 10
132.198
 20
160.482
 30
0
 10
134.424
 20
160.482
 30
0
 10
136.649
 20
160.482
 30
0
 10
138.762
 20
160.482
 30
0
 10
140.658
 20
160.482
 30
0
 10
142.242
 20
160.482
 30
0
 10
143.433
 20
160.482
 30
0
 10
144.173
 20
160.482
 30
0
 10
144.424
 20
160.482
 30
0
  0
SPLINE
  5
A0C
330
A02
100
AcDbEntity
  8
ProjItem001
100
AcDbSpline
210
0
220
0
230
1
 70
8
 71
1
 72
17
 73
15
 74
0
 40
3.14159
 40
3.14159
 40
3.36599
 40
3.59039
 40
3.81479
 40
4.03919
 40
4.26359
 40
4.48799
 40
4.71239
 40
4.93679
 40
5.16119
 40
5.38559
 40
5.60999
 40
5.83439
 40
6.05879
 40
6.28319
 40
6.28319
 10
124.424
 20
200.482
 30
0
 10
124.674
 20
200.482
 30
0
 10
125.414
 20
200.482
 30
0
 10
126.605
 20
200.482
 30
0
 10
128.189
 20
200.482
 30
0
 10
130.085
 20
200.482
 30
0
 10
132.198
 20
200.482
 30
0
 10
134.424
 20
200.482
 30
0
 10
136.649
 20
200.482
 30
0
 10
138.762
 20
200.482
 30
0
 10
140.658
 20
200.482
 30
0
 10
142.242
 20
200.482
 30
0
 10
143.433
 20
200.482
 30
0
 10
144.173
 20
200.482
 30
0
 10
144.424
 20
200.482
 30
0
  0
LINE
  5
A0D
330
A02
100
AcDbEntity
  8
ProjItem001
100
AcDbLine
 10
139.424
 20
130.482
 30
0
 11
139.424
 21
160.482
 31
0
  0
SPLINE
  5
A0E
330
A02
100
AcDbEntity
  8
ProjItem001
100
AcDbSpline
210
0
220
0
230
1
 70
8
 71
1
 72
17
 73
15
 74
0
 40
3.14159
 40
3.14159
 40
3.36599
 40
3.59039
 40
3.81479
 40
4.03919
 40
4.26359
 40
4.48799
 40
4.71239
 40
4.93679
 40
5.16119
 40
5.38559
 40
5.60999
 40
5.83439
 40
6.05879
 40
6.28319
 40
6.28319
 10
129.424
 20
130.482
 30
0
 10
129.549
 20
130.482
 30
0
 10
129.919
 20
130.482
 30
0
 10
130.514
 20
130.482
 30
0
 10
131.306
 20
130.482
 30
0
 10
132.254
 20
130.482
 30
0
 10
133.311
 20
130.482
 30
0
 10
134.424
 20
130.482
 30
0
 10
135.536
 20
130.482
 30
0
 10
136.593
 20
130.482
 30
0
 10
137.541
 20
130.482
 30
0
 10
138.333
 20
130.482
 30
0
 10
138.928
 20
130.482
 30
0
 10
139.298
 20
130.482
 30
0
 10
139.424
 20
130.482
 30
0
  0
LINE
  5
A0F
330
A02
100
AcDbEntity
  8
ProjItem001
100
AcDbLine
 10
139.424
 20
200.482
 30
0
 11
139.424
 21
260.482
 31
0
  0
SPLINE
  5
A10
330
A02
100
AcDbEntity
  8
ProjItem001
100
AcDbSpline
210
0
220
0
230
1
 70
8
 71
1
 72
17
 73
15
 74
0
 40
3.14159
 40
3.14159
 40
3.36599
 40
3.59039
 40
3.81479
 40
4.03919
 40
4.26359
 40
4.48799
 40
4.71239
 40
4.93679
 40
5.16119
 40
5.38559
 40
5.60999
 40
5.83439
 40
6.05879
 40
6.28319
 40
6.28319
 10
129.424
 20
260.482
 30
0
 10
129.549
 20
260.482
 30
0
 10
129.919
 20
260.482
 30
0
 10
130.514
 20
260.482
 30
0
 10
131.306
 20
260.482
 30
0
 10
132.254
 20
260.482
 30
0
 10
133.311
 20
260.482
 30
0
 10
134.424
 20
260.482
 30
0
 10
135.536
 20
260.482
 30
0
 10
136.593
 20
260.482
 30
0
 10
137.541
 20
260.482
 30
0
 10
138.333
 20
260.482
 30
0
 10
138.928
 20
260.482
 30
0
 10
139.298
 20
260.482
 30
0
 10
139.424
 20
260.482
 30
0
  0
LINE
  5
A11
330
A02
100
AcDbEntity
  8
ProjItem001
100
AcDbLine
 10
124.424
 20
200.482
 30
0
 11
124.424
 21
160.482
 31
0
  0
LINE
  5
A12
330
A02
100
AcDbEntity
  8
ProjItem001
100
AcDbLine
 10
129.424
 20
160.482
 30
0
 11
129.424
 21
130.482
 31
0
  0
LINE
  5
A13
330
A02
100
AcDbEntity
  8
ProjItem001
100
AcDbLine
 10
129.424
 20
260.482
 30
0
 11
129.424
 21
200.482
 31
0
  0
LINE
  5
A14
330
A02
100
AcDbEntity
  8
ProjItem001
100
AcDbLine
 10
134.424
 20
240.482
 30
0
 11
134.424
 21
180.482
 31
0
  0
LINE
  5
A15
330
A02
100
AcDbEntity
  8
ProjItem001
100
AcDbLine
 10
121.424
 20
210.482
 30
0
 11
147.424
 21
210.482
 31
0
  0
ELLIPSE
  5
A16
330
A02
100
AcDbEntity
  8
ProjItem002
100
AcDbEllipse
 10
198.792
 20
180.329
 30
0
 11
5
 21
-8.66025
 31
0
 40
0.57735
 41
3.14159
 42
0
  0
ELLIPSE
  5
A17
330
A02
100
AcDbEntity
  8
ProjItem002
100
AcDbEllipse
 10
227.077
 20
196.659
 30
0
 11
5
 21
-8.66025
 31
0
 40
0.57735
 41
0.785398
 42
1.0472
  0
ELLIPSE
  5
A18
330
A02
100
AcDbEntity
  8
ProjItem002
100
AcDbEllipse
 10
227.077
 20
196.659
 30
0
 11
5
 21
-8.66025
 31
0
 40
0.57735
 41
2.0944
 42
3.14159
  0
ELLIPSE
  5
A19
330
A02
100
AcDbEntity
  8
ProjItem002
100
AcDbEllipse
 10
227.077
 20
196.659
 30
0
 11
5
 21
-8.66025
 31
0
 40
0.57735
 41
3.14159
 42
0
  0
ELLIPSE
  5
A1A
330
A02
100
AcDbEntity
  8
ProjItem002
100
AcDbEllipse
 10
227.077
 20
196.659
 30
0
 11
5
 21
-8.66025
 31
0
 40
0.57735
 41
0
 42
0.785398
  0
ELLIPSE
  5
A1B
330
A02
100
AcDbEntity
  8
ProjItem002
100
AcDbEllipse
 10
227.077
 20
196.659
 30
0
 11
2.5
 21
-4.33013
 31
0
 40
0.57735
 41
3.14159
 42
0
  0
ELLIPSE
  5
A1C
330
A02
100
AcDbEntity
  8
ProjItem002
100
AcDbEllipse
 10
177.579
 20
168.082
 30
0
 11
2.5
 21
-4.33013
 31
0
 40
0.57735
 41
3.14159
 42
0
  0
ELLIPSE
  5
A1D
330
A02
100
AcDbEntity
  8
ProjItem002
100
AcDbEllipse
 10
269.503
 20
221.154
 30
0
 11
2.5
 21
-4.33013
 31
0
 40
0.57735
 41
0.785398
 42
3.14159
  0
ELLIPSE
  5
A1E
330
A02
100
AcDbEntity
  8
ProjItem002
100
AcDbEllipse
 10
269.503
 20
221.154
 30
0
 11
2.5
 21
-4.33013
 31
0
 40
0.57735
 41
3.14159
 42
0
  0
ELLIPSE
  5
A1F
330
A02
100
AcDbEntity
  8
ProjItem002
100
AcDbEllipse
 10
269.503
 20
221.154
 30
0
 11
2.5
 21
-4.33013
 31
0
 40
0.57735
 41
0
 42
0.785398
  0
LINE
  5
A20
330
A02
100
AcDbEntity
  8
ProjItem002
100
AcDbLine
 10
222.077
 20
205.319
 30
0
 11
193.792
 21
188.989
 31
0
  0
LINE
  5
A21
330
A02
100
AcDbEntity
  8
ProjItem002
100
AcDbLine
 10
232.077
 20
187.999
 30
0
 11
203.792
 21
171.669
 31
0
  0
LINE
  5
A22
330
A02
100
AcDbEntity
  8
ProjItem002
100
AcDbLine
 10
191.962
 20
182.159
 30
0
 11
175.079
 21
172.412
 31
0
  0
LINE
  5
A23
330
A02
100
AcDbEntity
  8
ProjItem002
100
AcDbLine
 10
196.962
 20
173.499
 30
0
 11
180.079
 21
163.752
 31
0
  0
LINE
  5
A24
330
A02
100
AcDbEntity
  8
ProjItem002
100
AcDbLine
 10
267.003
 20
225.484
 30
0
 11
224.577
 21
200.989
 31
0
  0
LINE
  5
A25
330
A02
100
AcDbEntity
  8
ProjItem002
100
AcDbLine
 10
272.003
 20
216.824
 30
0
 11
229.577
 21
192.329
 31
0
  0
SPLINE
  5
A26
330
A02
100
AcDbEntity
  8
ProjItem003
100
AcDbSpline
210
0
220
0
230
1
 70
8
 71
1
 72
17
 73
15
 74
0
 40
1.5708
 40
1.5708
 40
1.7952
 40
2.0196
 40
2.24399
 40
2.46839
 40
2.69279
 40
2.91719
 40
3.14159
 40
3.36599
 40
3.59039
 40
3.81479
 40
4.03919
 40
4.26359
 40
4.48799
 40
4.71239
 40
4.71239
 10
189.424
 20
95.0594
 30
0
 10
189.424
 20
94.8086
 30
0
 10
189.424
 20
94.0691
 30
0
 10
189.424
 20
92.8777
 30
0
 10
189.424
 20
91.2943
 30
0
 10
189.424
 20
89.3982
 30
0
 10
189.424
 20
87.2846
 30
0
 10
189.424
 20
85.0594
 30
0
 10
189.424
 20
82.8342
 30
0
 10
189.424
 20
80.7205
 30
0
 10
189.424
 20
78.8245
 30
0
 10
189.424
 20
77.241
 30
0
 10
189.424
 20
76.0497
 30
0
 10
189.424
 20
75.3101
 30
0
 10
189.424
 20
75.0594
 30
0
  0
SPLINE
  5
A27
330
A02
100
AcDbEntity
  8
ProjItem003
100
AcDbSpline
210
0
220
0
230
1
 70
8
 71
1
 72
17
 73
15
 74
0
 40
1.5708
 40
1.5708
 40
1.7952
 40
2.0196
 40
2.24399
 40
2.46839
 40
2.69279
 40
2.91719
 40
3.14159
 40
3.36599
 40
3.59039
 40
3.81479
 40
4.03919
 40
4.26359
 40
4.48799
 40
4.71239
 40
4.71239
 10
229.424
 20
95.0594
 30
0
 10
229.424
 20
94.8086
 30
0
 10
229.424
 20
94.0691
 30
0
 10
229.424
 20
92.8777
 30
0
 10
229.424
 20
91.2943
 30
0
 10
229.424
 20
89.3982
 30
0
 10
229.424
 20
87.2846
 30
0
 10
229.424
 20
85.0594
 30
0
 10
229.424
 20
82.8342
 30
0
 10
229.424
 20
80.7205
 30
0
 10
229.424
 20
78.8245
 30
0
 10
229.424
 20
77.241
 30
0
 10
229.424
 20
76.0497
 30
0
 10
229.424
 20
75.3101
 30
0
 10
229.424
 20
75.0594
 30
0
  0
SPLINE
  5
A28
330
A02
100
AcDbEntity
  8
ProjItem003
100
AcDbSpline
210
0
220
0
230
1
 70
8
 71
1
 72
17
 73
15
 74
0
 40
1.5708
 40
1.5708
 40
1.7952
 40
2.0196
 40
2.24399
 40
2.46839
 40
2.69279
 40
2.91719
 40
3.14159
 40
3.36599
 40
3.59039
 40
3.81479
 40
4.03919
 40
4.26359
 40
4.48799
 40
4.71239
 40
4.71239
 10
159.424
 20
90.0594
 30
0
 10
159.424
 20
89.934
 30
0
 10
159.424
 20
89.5642
 30
0
 10
159.424
 20
88.9685
 30
0
 10
159.424
 20
88.1768
 30
0
 10
159.424
 20
87.2288
 30
0
 10
159.424
 20
86.172
 30
0
 10
159.424
 20
85.0594
 30
0
 10
159.424
 20
83.9468
 30
0
 10
159.424
 20
82.8899
 30
0
 10
159.424
 20
81.9419
 30
0
 10
159.424
 20
81.1502
 30
0
 10
159.424
 20
80.5545
 30
0
 10
159.424
 20
80.1847
 30
0
 10
159.424
 20
80.0594
 30
0
  0
SPLINE
  5
A29
330
A02
100
AcDbEntity
  8
ProjItem003
100
AcDbSpline
210
0
220
0
230
1
 70
8
 71
1
 72
17
 73
15
 74
0
 40
1.5708
 40
1.5708
 40
1.7952
 40
2.0196
 40
2.24399
 40
2.46839
 40
2.69279
 40
2.91719
 40
3.14159
 40
3.36599
 40
3.59039
 40
3.81479
 40
4.03919
 40
4.26359
 40
4.48799
 40
4.71239
 40
4.71239
 10
289.424
 20
90.0594
 30
0
 10
289.424
 20
89.934
 30
0
 10
289.424
 20
89.5642
 30
0
 10
289.424
 20
88.9685
 30
0
 10
289.424
 20
88.1768
 30
0
 10
289.424
 20
87.2288
 30
0
 10
289.424
 20
86.172
 30
0
 10
289.424
 20
85.0594
 30
0
 10
289.424
 20
83.9468
 30
0
 10
289.424
 20
82.8899
 30
0
 10
289.424
 20
81.9419
 30
0
 10
289.424
 20
81.1502
 30
0
 10
289.424
 20
80.5545
 30
0
 10
289.424
 20
80.1847
 30
0
 10
289.424
 20
80.0594
 30
0
  0
LINE
  5
A2A
330
A02
100
AcDbEntity
  8
ProjItem003
100
AcDbLine
 10
229.424
 20
95.0594
 30
0
 11
189.424
 21
95.0594
 31
0
  0
LINE
  5
A2B
330
A02
100
AcDbEntity
  8
ProjItem003
100
AcDbLine
 10
229.424
 20
75.0594
 30
0
 11
189.424
 21
75.0594
 31
0
  0
LINE
  5
A2C
330
A02
100
AcDbEntity
  8
ProjItem003
100
AcDbLine
 10
189.424
 20
90.0594
 30
0
 11
159.424
 21
90.0594
 31
0
  0
LINE
  5
A2D
330
A02
100
AcDbEntity
  8
ProjItem003
100
AcDbLine
 10
189.424
 20
80.0594
 30
0
 11
159.424
 21
80.0594
 31
0
  0
LINE
  5
A2E
330
A02
100
AcDbEntity
  8
ProjItem003
100
AcDbLine
 10
289.424
 20
90.0594
 30
0
 11
229.424
 21
90.0594
 31
0
  0
LINE
  5
A2F
330
A02
100
AcDbEntity
  8
ProjItem003
100
AcDbLine
 10
289.424
 20
80.0594
 30
0
 11
229.424
 21
80.0594
 31
0
  0
DIMENSION
  5
A30
330
A02
100
AcDbEntity
  8
Dimension
100
AcDbDimension
  2
*Dimension
 10
133.924
 20
276.609
 30
0
 11
133.924
 21
281.609
 31
0
 70
32
  1
1
  3
STANDARD
100
AcDbAlignedDimension
 13
129.424
 23
260.482
 33
0
 14
139.424
 24
260.482
 34
0
100
AcDbRotatedDimension
  0
DIMENSION
  5
A3A
330
A02
100
AcDbEntity
  8
Dimension001
100
AcDbDimension
  2
*Dimension001
 10
104.014
 20
233.387
 30
0
 11
99.0136
 21
233.387
 31
0
 70
32
  1
6
  3
STANDARD
100
AcDbAlignedDimension
 13
129.424
 23
260.482
 33
0
 14
129.424
 24
200.482
 34
0
 50
90
100
AcDbRotatedDimension
  0
DIMENSION
  5
A44
330
A02
100
AcDbEntity
  8
Dimension002
100
AcDbDimension
  2
*Dimension002
 10
104.285
 20
181.765
 30
0
 11
99.2847
 21
181.765
 31
0
 70
32
  1
4
  3
STANDARD
100
AcDbAlignedDimension
 13
124.424
 23
200.482
 33
0
 14
124.424
 24
160.482
 34
0
 50
90
100
AcDbRotatedDimension
  0
DIMENSION
  5
A4E
330
A02
100
AcDbEntity
  8
Dimension003
100
AcDbDimension
  2
*Dimension003
 10
104.419
 20
144.332
 30
0
 11
99.4191
 21
144.332
 31
0
 70
32
  1
3
  3
STANDARD
100
AcDbAlignedDimension
 13
129.424
 23
160.482
 33
0
 14
129.424
 24
130.482
 34
0
 50
90
100
AcDbRotatedDimension
  0
DIMENSION
  5
A58
330
A02
100
AcDbEntity
  8
Dimension004
100
AcDbDimension
  2
*Dimension004
 10
134.018
 20
108.114
 30
0
 11
134.018
 21
113.114
 31
0
 70
32
  1
1
  3
STANDARD
100
AcDbAlignedDimension
 13
129.424
 23
130.482
 33
0
 14
139.424
 24
130.482
 34
0
100
AcDbRotatedDimension
  0
DIMENSION
  5
A62
330
A02
100
AcDbEntity
  8
Dimension005
100
AcDbDimension
  2
*Dimension005
 10
133.981
 20
285.591
 30
0
 11
133.981
 21
290.591
 31
0
 70
32
  1
2
  3
STANDARD
100
AcDbAlignedDimension
 13
124.424
 23
200.482
 33
0
 14
144.424
 24
200.482
 34
0
100
AcDbRotatedDimension
  0
ENDSEC
  0
SECTION
  2
OBJECTS
  0
DICTIONARY
  5
F000
330
0
100
AcDbDictionary
  3
ACAD_GROUP
350
F001
  0
DICTIONARY
  5
F001
330
F000
100
AcDbDictionary
  0
ENDSEC
  0
EOF