<?xml version='1.0' encoding='UTF-8' standalone='no'?>
<svg xmlns:xlink="http://www.w3.org/1999/xlink" baseProfile="tiny" version="1.2" xmlns:svg="http://www.w3.org/2000/svg" xmlns="http://www.w3.org/2000/svg" xmlns:dc="http://purl.org/dc/elements/1.1/" width="420mm" xmlns:cc="http://creativecommons.org/ns#" xmlns:freecad="http://www.freecad.org/wiki/index.php?title=Svg_Namespace" height="297mm" xmlns:rdf="http://www.w3.org/1999/02/22-rdf-syntax-ns#" viewBox="0 0 4200 2970" xmlns:inkscape="http://www.inkscape.org/namespaces/inkscape" xmlns:sodipodi="http://sodipodi.sourceforge.net/DTD/sodipodi-0.dtd">
 <title>FreeCAD SVG Export</title>
 <desc>Drawing page: Page exported from FreeCAD document: Unnamed</desc>
 <defs/>
 <g inkscape:groupmode="layer" id="Page" inkscape:label="TechDraw">
  <g id="A3_Landscape_CN_CLIP.svg" style="stroke: none;" transform="scale(10.000000, 10.000000)">
   <g id="orienation-border" stroke="#000" fill="none" stroke-linecap="miter" stroke-width=".25">
    <path d="m21 1h398"/>
    <!-- Top Line OutSide -->
    <path d="m21 1v295"/>
    <!-- Left Line OutSide -->
    <path d="m419 1v295"/>
    <!-- Right Line OutSide -->
    <path d="m21 296h99.625"/>
    <!-- Left-Part-Bottom 1st  OutSide -->
    <path d="m319.38 296h99.625"/>
    <!-- Right-Part-Bottom OutSide -->
    <!-- orientation separators top -->
    <path d="m70.75 1v4"/>
    <!-- The space length is: 49.75 -->
    <path d="m120.5 1v4"/>
    <path d="m170.25 1v4"/>
    <path d="m220 1v4"/>
    <path d="m269.75 1v4"/>
    <path d="m319.5 1v4"/>
    <path d="m369.25 1v4"/>
    <path d="m419 1v4"/>
    <!-- orientation separators left -->
    <path d="m21 50.167h4"/>
    <!-- The space length is: 49.1667-->
    <path d="m21 99.333h4"/>
    <!-- The space length is: 49.1667-->
    <path d="m21 148.5h4"/>
    <!-- The space length is: 49.1667-->
    <path d="m21 197.67h4"/>
    <!-- The space length is: 49.1667-->
    <path d="m21 246.83h4"/>
    <!-- The space length is: 49.1667-->
    <path d="m21 296h4"/>
    <!-- The space length is: 49.1667-->
    <!-- orientation separators right -->
    <path d="m415 50.167h4"/>
    <!-- The space length is: 49.1667-->
    <path d="m415 99.333h4"/>
    <!-- The space length is: 49.1667-->
    <path d="m415 148.5h4"/>
    <!-- The space length is: 49.1667-->
    <path d="m415 197.67h4"/>
    <!-- The space length is: 49.1667-->
    <path d="m415 246.83h4"/>
    <!-- The space length is: 49.1667-->
    <path d="m415 296h4"/>
    <!-- The space length is: 49.1667-->
    <!-- orientation separators bottom -->
    <!-- space 49.75 -->
    <path d="m70.75 292v4"/>
    <path d="m120.5 292v4"/>
    <path d="m319.5 292v4"/>
    <path d="m369.25 292v4"/>
   </g>
   <g font-family="tahoma" id="orientation-text" xml:space="preserve" font-size="3.5">
    <!-- orientation char top -->
    <text y="4.25" x="44">1</text>
    <text y="4.25" x="94">2</text>
    <text y="4.25" x="144">3</text>
    <text y="4.25" x="194">4</text>
    <text y="4.25" x="244">5</text>
    <text y="4.25" x="294">6</text>
    <text y="4.25" x="344">7</text>
    <text y="4.25" x="394">8</text>
    <!-- orientation char left -->
    <text y="27" x="21.825">A</text>
    <!-- space 49.1667 -->
    <text y="74" x="21.825">B</text>
    <text y="123" x="21.825">C</text>
    <text y="173" x="21.825">D</text>
    <text y="223" x="21.825">E</text>
    <text y="273" x="21.825">F</text>
    <!-- orientation char right -->
    <text y="27" x="416">A</text>
    <text y="74" x="416">B</text>
    <text y="123.75" x="416">C</text>
    <text y="173.25" x="416">D</text>
    <text y="223.25" x="416">E</text>
    <text y="273.25" x="416">F</text>
    <!-- orientation char bottom -->
    <text y="295.25" x="44">1</text>
    <text y="295.25" x="94">2</text>
    <text y="295.25" x="344">7</text>
    <text y="295.25" x="394">8</text>
   </g>
   <g id="drawing-border" stroke="#000" fill="none" stroke-linecap="miter" stroke-width=".5">
    <rect y="5" width="390" x="25" height="287"/>
   </g>
   <g id="center-line" stroke="#000" stroke-width=".5">
    <line y2="10" x2="220" y1="1" x1="220"/>
    <!-- Top center line -->
    <line y2="148.5" x2="30" y1="148.5" x1="21"/>
    <line y2="148.5" x2="419" y1="148.5" x1="410"/>
    <line y2="298" x2="220" y1="289" x1="220"/>
    <!-- Bottom center line -->
   </g>
   <g id="metric-mark" stroke="#000" stroke-width=".5">
    <path d="m171 297h100"/>
    <path d="m171 292v5"/>
    <path d="m181 292v5"/>
    <path d="m191 292v5"/>
    <path d="m201 292v5"/>
    <path d="m211 292v5"/>
    <path d="m231 292v5"/>
    <path d="m241 292v5"/>
    <path d="m251 292v5"/>
    <path d="m261 292v5"/>
    <path d="m271 292v5"/>
   </g>
   <g id="titleblock-structure" stroke="#000" fill="none" stroke-linecap="miter" stroke-width=".5">
    <rect y="236" width="180" x="235" height="56"/>
    <path d="m235 243h80"/>
    <!-- left up 1st horizon line  Titleblock -->
    <path d="m235 250h80"/>
    <!-- left up 2nd horizon line  Titleblock -->
    <path d="m235 257h80"/>
    <!-- left up 3rd horizon line  Titleblock -->
    <path d="m235 264h130"/>
    <!-- left up 4th horizon line  Titleblock -->
    <path d="m235 271h80"/>
    <!-- left up 5th horizon line  Titleblock -->
    <path d="m235 278h80"/>
    <!-- left up 6th horizon line  Titleblock -->
    <path d="m234 285h80"/>
    <!-- left up 7th horizon line  Titleblock -->
    <path d="m245 236v28"/>
    <!-- left up 1st vertical line  Titleblock -->
    <path d="m255 236v28"/>
    <!-- left up 2nd vertical line  Titleblock -->
    <path d="m271 236v28"/>
    <!-- left up 3th vertical line  Titleblock -->
    <path d="m287 236v56"/>
    <!-- left up 4th vertical line  Titleblock -->
    <path d="m299 236v56"/>
    <!-- left up 5th vertical line  Titleblock -->
    <path d="m315 236v56"/>
    <!-- left up 6th vertical line  Titleblock -->
    <path d="m365 236v56"/>
    <!-- left up 7th vertical line  Titleblock -->
    <path d="m247 264v28"/>
    <!-- left down 1st vertical line  Titleblock -->
    <path d="m259 264v28"/>
    <!-- left down 2nd vertical line  Titleblock -->
    <path d="m275 264v28"/>
    <!-- left down 3rd vertical line  Titleblock -->
    <path d="m315 274h50"/>
    <!-- middle up 2nd horizon line  Titleblock -->
    <path d="m315 283h50"/>
    <!-- middle up 3rd horizon line  Titleblock -->
    <path d="m365 251h50"/>
    <!-- right up 1st horizon line  Titleblock -->
    <path d="m365 272h50"/>
    <!-- right up 2nd horizon line  Titleblock -->
    <path d="m321.5 274v9"/>
    <!-- middle down 1st vertical line  Titleblock -->
    <path d="m328 274v9"/>
    <!-- middle down 2nd vertical line  Titleblock -->
    <path d="m333.5 274v9"/>
    <!-- middle down 3rd vertical line  Titleblock -->
    <path d="m341 264v19"/>
    <!-- middle down 4th vertical line  Titleblock -->
    <path d="m353 264v19"/>
    <!-- middle down 5th vertical line  Titleblock -->
   </g>
   <g font-family="HYSWLongFangSong" id="titleblock-text-non-editable" xml:space="preserve" style="strock:black" font-size="5">
    <text y="262" x="236.5">标记</text>
    <text y="262" x="246.5">处数</text>
    <text y="262" x="260">分区</text>
    <text y="262" x="271.25">更</text>
    <text y="262" x="274.25">改</text>
    <text y="262" x="277.25">文</text>
    <text y="262" x="280.25">件</text>
    <text y="262" x="283.25">号</text>
    <text y="262" x="289.5">签名</text>
    <text y="262" x="300">(年月日)</text>
    <!-- -->
    <text y="269" x="237">设计</text>
    <text y="269" x="248">(签名)</text>
    <text y="269" x="260">(年月日)</text>
    <!-- -->
    <text y="269" x="276">标准化</text>
    <text y="269" x="288">(签名)</text>
    <text y="269" x="300">(年月日)</text>
    <!-- -->
    <text y="270" x="320">阶段标记</text>
    <text y="270" x="343">重量</text>
    <text y="270" x="355">比例</text>
    <!-- -->
    <text y="283" x="237">审核</text>
    <text y="283" x="277.5">制图</text>
    <text y="290" x="237">工艺</text>
    <text y="290" x="277.5">批准</text>
    <!-- -->
    <text y="289" x="316">共</text>
    <text y="289" x="336">张</text>
    <text y="289" x="340">第</text>
    <text y="289" x="360">张</text>
    <!-- -->
    <text y="291" x="367" font-size="10">A3</text>
    <text font-family="HYSWLongFangSong" y="286" x="378" font-size="1.8">模板版本:0.0.2</text>
    <text font-family="HYSWLongFangSong" y="288.5" x="378" font-size="1.8">模板设计:李峰</text>
    <text font-family="HYSWLongFangSong" y="290.75" x="378" font-size="1.8">felix@95839.com</text>
    <!-- -->
    <text y="241" x="333">材料牌号</text>
   </g>
   <g id="project mark" stroke="#000" stroke-width=".5">
    <!-- project mark begin -->
    <line y2="286.5" x2="402" y1="286.5" x1="392" stroke-dasharray="2.75,0.25,0.25,0.25,2.75,0.25,0.25,0.25"/>
    <line y2="286.5" x2="414" y1="286.5" x1="404" stroke-dasharray="2.5,0.25,0.5,0.25,3,0.25,0.5,0.25"/>
    <line y2="291.5" x2="409" y1="281.5" x1="409" stroke-dasharray="2.5,0.25,0.5,0.25,3,0.25,0.5,0.25"/>
    <g fill="none">
     <polygon points="393 284.5 401 282.5 401 290.5 393 288.5"/>
     <circle r="2" cx="409" cy="286.5"/>
     <circle r="4" cx="409" cy="286.5"/>
    </g>
    <!-- project mark end -->
   </g>
   <g id="binding hole">
    <g stroke="#666" fill="#bbb" stroke-width=".5">
     <circle r="3" cx="10" cy="27.5"/>
     <circle r="3" cx="10" cy="65.5"/>
     <circle r="3" cx="10" cy="148.5"/>
     <circle r="3" cx="10" cy="231.5"/>
     <circle r="3" cx="10" cy="269.5"/>
     <line y2="48" x2="10" y1="38" x1="10"/>
     <line y2="257" x2="10" y1="247" x1="10"/>
     <text y="85" x="7.5" font-size="5">装</text>
     <text y="128" x="7.5" font-size="5">订</text>
     <line y2="148.5" x2="15" y1="148.5" x1="5"/>
     <line y2="143.5" x2="10" y1="153.5" x1="10"/>
    </g>
   </g>
   <g font-family="HYSWLongFangSong" id="titleblock-text-editable" xml:space="preserve" style="strock:black" text-align="center" font-size="5">
    <text y="275.5" freecad:editable="AUTHOR_NAME" x="229">
     <tspan dy="275.5" text-anchor="left" xml:space="preserve" dx="229">设计人</tspan>
    </text>
    <text y="283" freecad:editable="DRAWING_NAME" x="280.5" fill="#000000" text-align="center" font-size="5">
     <tspan xml:space="preserve">制图人</tspan>
    </text>
    <text y="283" freecad:editable="CHECKED_NAME" x="240.5" fill="#000000" text-align="center" font-size="5">
     <tspan xml:space="preserve">审核人</tspan>
    </text>
    <text y="290" freecad:editable="APPROVER_NAME" x="280.5" fill="#000000" text-align="center" font-size="5">
     <tspan xml:space="preserve">批准人</tspan>
    </text>
    <text y="290" freecad:editable="CRAFTS_NAME" x="240.5" fill="#000000" text-align="center" font-size="5">
     <tspan xml:space="preserve">评审人</tspan>
    </text>
    <!-- -->
    <text y="289" freecad:editable="TOTAL_SHEETS" x="314" fill="#000000" text-align="center" font-size="5">
     <tspan xml:space="preserve"> 99 </tspan>
    </text>
    <text y="289" freecad:editable="OF_SHEET" x="338" fill="#000000" text-align="center" font-size="5">
     <tspan xml:space="preserve"> 1 </tspan>
    </text>
    <text y="280" freecad:editable="SCALE" x="347" fill="#000000" text-align="center" font-size="5">
     <tspan xml:space="preserve">M x:x</tspan>
    </text>
    <text y="280" freecad:editable="STAGE-S" x="310.25" fill="#000000" text-align="center" font-size="5">
     <tspan xml:space="preserve"/>
    </text>
    <text y="280" freecad:editable="STAGE-A" x="317.25" fill="#000000" text-align="center" font-size="5">
     <tspan xml:space="preserve"/>
    </text>
    <text y="280" freecad:editable="STAGE-B" x="323.25" fill="#000000" text-align="center" font-size="5">
     <tspan xml:space="preserve"/>
    </text>
    <text y="280" freecad:editable="STAGE-C" x="329" fill="#000000" text-align="center" font-size="5">
     <tspan xml:space="preserve"/>
    </text>
    <text y="280" freecad:editable="WEIGHT" x="335" fill="#000000" text-align="center" font-size="5">
     <tspan xml:space="preserve">重量</tspan>
    </text>
    <!-- -->
    <text y="275.5" freecad:editable="DATE-1" x="255" fill="#000000" text-align="center" font-size="3.5">
     <tspan xml:space="preserve">YYYY-MM-DD</tspan>
    </text>
    <text y="282.5" freecad:editable="DATE-2" x="295" fill="#000000" text-align="center" font-size="3.5">
     <tspan xml:space="preserve">YYYY-MM-DD</tspan>
    </text>
    <text y="240" freecad:editable="COMPANYNAME" x="358.5" fill="#000000" text-align="center" font-size="5">
     <tspan xml:space="preserve">(单位名称/单位代号)</tspan>
    </text>
    <text y="245" freecad:editable="COMPANYADDR" x="358.5" fill="#000000" text-align="center" font-size="5">
     <tspan xml:space="preserve">(单位地址)</tspan>
    </text>
    <text y="250" freecad:editable="COMPANYPHONE" x="358.5" fill="#000000" text-align="center" font-size="5">
     <tspan xml:space="preserve">(单位电话/电邮)</tspan>
    </text>
    <text y="255" text-anchor="middle" freecad:editable="MATERIALMARK" x="338" font-size="10">
     <tspan xml:space="preserve">(材料标记)</tspan>
    </text>
    <text y="255.5" freecad:editable="PROJECT_TITLE" x="358.5" fill="#000000" text-align="center" font-size="5">
     <tspan xml:space="preserve">(项目标题)</tspan>
    </text>
    <text y="260.5" freecad:editable="SUBTITLE" x="358.5" fill="#000000" text-align="center" font-size="5">
     <tspan xml:space="preserve">(子项目标题)</tspan>
    </text>
    <text y="265.5" freecad:editable="PARTNAME" x="358.5" fill="#000000" text-align="center" font-size="5">
     <tspan xml:space="preserve">(零件名称)</tspan>
    </text>
    <text y="270.5" freecad:editable="VERSION" x="358.5" fill="#000000" text-align="center" font-size="5">
     <tspan xml:space="preserve">(版本号)</tspan>
    </text>
    <text y="279" text-anchor="middle" freecad:editable="PART_CODE_NAME" x="390" fill="#000000" text-align="center" font-size="5">
     <tspan xml:space="preserve">(图样代号)</tspan>
    </text>
   </g>
  </g>
  <g stroke-linejoin="bevel" id="DrawingContent" stroke="black" fill="none" fill-rule="evenodd" stroke-linecap="square" stroke-width="1">
   <g font-family="SimSun" stroke-linejoin="bevel" stroke-opacity="1" stroke="#000000" fill="none" transform="matrix(1,0,0,1,1344.24,2119.41)" stroke-linecap="square" font-size="31.75" font-style="normal" stroke-width="1" font-weight="400">
    <rect y="0" width="0" x="0" height="0"/>
   </g>
   <g font-family="SimSun" fill-opacity="1" stroke="none" fill="#ffffff" transform="matrix(1,0,0,1,1344.24,2119.41)" font-size="31.75" font-style="normal" font-weight="400">
    <path d="M100,0 C100,55.2285 55.2285,100 0,100 C-55.2285,100 -100,55.2285 -100,0 C-100,-55.2285 -55.2285,-100 0,-100 C55.2285,-100 100,-55.2285 100,0 " vector-effect="non-scaling-stroke" fill-rule="evenodd"/>
   </g>
   <g font-family="SimSun" fill-opacity="1" stroke="none" fill="#ffffff" transform="matrix(1,0,0,1,1344.24,2119.41)" font-size="31.75" font-style="normal" font-weight="400">
    <path d="M50,0 C50,27.6142 27.6142,50 0,50 C-27.6142,50 -50,27.6142 -50,0 C-50,-27.6142 -27.6142,-50 0,-50 C27.6142,-50 50,-27.6142 50,0 " vector-effect="non-scaling-stroke" fill-rule="evenodd"/>
   </g>
   <g font-family="SimSun" stroke-linejoin="bevel" stroke-opacity="1" stroke="#000000" fill="none" transform="matrix(1,0,0,1,1344.24,2119.41)" stroke-linecap="round" font-size="31.75" font-style="normal" stroke-width="7" font-weight="400">
    <path d="M100,0 C100,55.2285 55.2285,100 0,100 C-55.2285,100 -100,55.2285 -100,0 C-100,-55.2285 -55.2285,-100 0,-100 C55.2285,-100 100,-55.2285 100,0 " vector-effect="none" fill-rule="evenodd"/>
   </g>
   <g font-family="SimSun" stroke-linejoin="bevel" stroke-opacity="1" stroke="#000000" fill="none" transform="matrix(1,0,0,1,1344.24,2119.41)" stroke-linecap="round" font-size="31.75" font-style="normal" stroke-width="7" font-weight="400">
    <path d="M50,0 C50,27.6142 27.6142,50 0,50 C-27.6142,50 -50,27.6142 -50,0 C-50,-27.6142 -27.6142,-50 0,-50 C27.6142,-50 50,-27.6142 50,0 " vector-effect="none" fill-rule="evenodd"/>
   </g>
   <g font-family="SimSun" fill-opacity="1" stroke="none" fill="#ffffff" transform="matrix(1,0,0,1,1344.24,1015.18)" font-size="31.75" font-style="normal" font-weight="400">
    <path d="M-100,-50 L-100,350 L-97.4928,350 L-90.0969,350 L-78.1831,350 L-62.349,350 L-50,350 L-50,650 L50,650 L50,350 L62.349,350 L78.1831,350 L90.0969,350 L97.4928,350 L100,350 L100,-50 L97.4928,-50 L90.0969,-50 L78.1831,-50 L62.349,-50 L50,-50 L50,-650 L-50,-650 L-50,-50 L-62.349,-50 L-78.1831,-50 L-90.0969,-50 L-97.4928,-50 L-100,-50" vector-effect="non-scaling-stroke" fill-rule="evenodd"/>
   </g>
   <g font-family="SimSun" fill-opacity="1" stroke="none" fill="#ffffff" transform="matrix(1,0,0,1,1344.24,1015.18)" font-size="31.75" font-style="normal" font-weight="400">
    <path d="M-100,-50 L-100,350 L-97.4928,350 L-90.0969,350 L-78.1831,350 L-62.349,350 L-50,350 L-43.3884,350 L-22.2521,350 L4.44089e-15,350 L22.2521,350 L43.3884,350 L50,350 L62.349,350 L78.1831,350 L90.0969,350 L97.4928,350 L100,350 L100,-50 L97.4928,-50 L90.0969,-50 L78.1831,-50 L62.349,-50 L50,-50 L43.3884,-50 L22.2521,-50 L4.44089e-15,-50 L-22.2521,-50 L-43.3884,-50 L-50,-50 L-62.349,-50 L-78.1831,-50 L-90.0969,-50 L-97.4928,-50 L-100,-50" vector-effect="non-scaling-stroke" fill-rule="evenodd"/>
   </g>
   <g font-family="SimSun" fill-opacity="1" stroke="none" fill="#ffffff" transform="matrix(1,0,0,1,1344.24,1015.18)" font-size="31.75" font-style="normal" font-weight="400">
    <path d="M-50,-650 L-50,-50 L-43.3884,-50 L-22.2521,-50 L4.44089e-15,-50 L22.2521,-50 L43.3884,-50 L50,-50 L50,-650 L-50,-650" vector-effect="non-scaling-stroke" fill-rule="evenodd"/>
   </g>
   <g font-family="SimSun" fill-opacity="1" stroke="none" fill="#ffffff" transform="matrix(1,0,0,1,1344.24,1015.18)" font-size="31.75" font-style="normal" font-weight="400">
    <path d="M-50,350 L-50,650 L50,650 L50,350 L43.3884,350 L22.2521,350 L4.44089e-15,350 L-22.2521,350 L-43.3884,350 L-50,350" vector-effect="non-scaling-stroke" fill-rule="evenodd"/>
   </g>
   <g font-family="SimSun" stroke-linejoin="bevel" stroke-opacity="1" stroke="#000000" fill="none" transform="matrix(1,0,0,1,1344.24,1015.18)" stroke-linecap="round" font-size="31.75" font-style="normal" stroke-width="7" font-weight="400">
    <path d="M100,350 L100,-50" vector-effect="none" fill-rule="evenodd"/>
   </g>
   <g font-family="SimSun" stroke-linejoin="bevel" stroke-opacity="1" stroke="#000000" fill="none" transform="matrix(1,0,0,1,1344.24,1015.18)" stroke-linecap="round" font-size="31.75" font-style="normal" stroke-width="7" font-weight="400">
    <path d="M-100,350 L100,350" vector-effect="none" fill-rule="evenodd"/>
   </g>
   <g font-family="SimSun" stroke-linejoin="bevel" stroke-opacity="1" stroke="#000000" fill="none" transform="matrix(1,0,0,1,1344.24,1015.18)" stroke-linecap="round" font-size="31.75" font-style="normal" stroke-width="7" font-weight="400">
    <path d="M-100,-50 L100,-50" vector-effect="none" fill-rule="evenodd"/>
   </g>
   <g font-family="SimSun" stroke-linejoin="bevel" stroke-opacity="1" stroke="#000000" fill="none" transform="matrix(1,0,0,1,1344.24,1015.18)" stroke-linecap="round" font-size="31.75" font-style="normal" stroke-width="7" font-weight="400">
    <path d="M50,650 L50,350" vector-effect="none" fill-rule="evenodd"/>
   </g>
   <g font-family="SimSun" stroke-linejoin="bevel" stroke-opacity="1" stroke="#000000" fill="none" transform="matrix(1,0,0,1,1344.24,1015.18)" stroke-linecap="round" font-size="31.75" font-style="normal" stroke-width="7" font-weight="400">
    <path d="M-50,650 L50,650" vector-effect="none" fill-rule="evenodd"/>
   </g>
   <g font-family="SimSun" stroke-linejoin="bevel" stroke-opacity="1" stroke="#000000" fill="none" transform="matrix(1,0,0,1,1344.24,1015.18)" stroke-linecap="round" font-size="31.75" font-style="normal" stroke-width="7" font-weight="400">
    <path d="M50,-50 L50,-650" vector-effect="none" fill-rule="evenodd"/>
   </g>
   <g font-family="SimSun" stroke-linejoin="bevel" stroke-opacity="1" stroke="#000000" fill="none" transform="matrix(1,0,0,1,1344.24,1015.18)" stroke-linecap="round" font-size="31.75" font-style="normal" stroke-width="7" font-weight="400">
    <path d="M-50,-650 L50,-650" vector-effect="none" fill-rule="evenodd"/>
   </g>
   <g font-family="SimSun" stroke-linejoin="bevel" stroke-opacity="1" stroke="#000000" fill="none" transform="matrix(1,0,0,1,1344.24,1015.18)" stroke-linecap="round" font-size="31.75" font-style="normal" stroke-width="7" font-weight="400">
    <path d="M-100,-50 L-100,350" vector-effect="none" fill-rule="evenodd"/>
   </g>
   <g font-family="SimSun" stroke-linejoin="bevel" stroke-opacity="1" stroke="#000000" fill="none" transform="matrix(1,0,0,1,1344.24,1015.18)" stroke-linecap="round" font-size="31.75" font-style="normal" stroke-width="7" font-weight="400">
    <path d="M-50,350 L-50,650" vector-effect="none" fill-rule="evenodd"/>
   </g>
   <g font-family="SimSun" stroke-linejoin="bevel" stroke-opacity="1" stroke="#000000" fill="none" transform="matrix(1,0,0,1,1344.24,1015.18)" stroke-linecap="round" font-size="31.75" font-style="normal" stroke-width="7" font-weight="400">
    <path d="M-50,-650 L-50,-50" vector-effect="none" fill-rule="evenodd"/>
   </g>
   <g font-family="SimSun" stroke-linejoin="bevel" stroke-dashoffset="0" stroke-opacity="1" stroke="#000000" fill="none" transform="matrix(1,0,0,1,1344.24,1015.18)" stroke-linecap="round" stroke-dasharray="20,10" font-size="31.75" font-style="normal" stroke-width="5" font-weight="400">
    <path d="M-1.77636e-14,450 L-1.77636e-14,-150" vector-effect="none" fill-rule="evenodd"/>
   </g>
   <g font-family="SimSun" stroke-linejoin="bevel" stroke-dashoffset="0" stroke-opacity="1" stroke="#000000" fill="none" transform="matrix(1,0,0,1,1344.24,1015.18)" stroke-linecap="round" stroke-dasharray="20,10" font-size="31.75" font-style="normal" stroke-width="5" font-weight="400">
    <path d="M-130,150 L130,150" vector-effect="none" fill-rule="evenodd"/>
   </g>
   <g font-family="SimSun" stroke-linejoin="bevel" stroke-opacity="1" stroke="#000000" fill="none" transform="matrix(1,0,0,1,1327.99,118.468)" stroke-linecap="square" font-size="31.75" font-style="normal" stroke-width="1" font-weight="400">
    <text font-family="osifont" fill-opacity="1" y="92" xml:space="preserve" stroke="none" x="4" fill="#000000" font-size="67" font-style="normal" font-weight="400">1</text>
   </g>
   <g font-family="SimSun" stroke-linejoin="bevel" stroke-opacity="1" stroke="#000000" fill="none" transform="matrix(1,0,0,1,1344.24,1015.18)" stroke-linecap="round" font-size="31.75" font-style="normal" stroke-width="3.5" font-weight="400">
    <path d="M-50,-788.216 L50,-788.216 M50,-650 L50,-816.216 M-50,-650 L-50,-816.216" vector-effect="none" fill-rule="evenodd"/>
   </g>
   <g font-family="SimSun" stroke-linejoin="bevel" fill-opacity="1" stroke-opacity="1" stroke="#000000" fill="#000000" transform="matrix(1,0,0,1,1394.24,226.968)" stroke-linecap="round" font-size="31.75" font-style="normal" stroke-width="3.5" font-weight="400">
    <path d="M0,0 L-35,-5.83333 L-35,5.83333 L0,0" vector-effect="none" fill-rule="evenodd"/>
   </g>
   <g font-family="SimSun" stroke-linejoin="bevel" fill-opacity="1" stroke-opacity="1" stroke="#000000" fill="#000000" transform="matrix(1,0,0,1,1294.24,226.968)" stroke-linecap="round" font-size="31.75" font-style="normal" stroke-width="3.5" font-weight="400">
    <path d="M0,0 L35,5.83333 L35,-5.83333 L0,0" vector-effect="none" fill-rule="evenodd"/>
   </g>
   <g font-family="SimSun" stroke-linejoin="bevel" stroke-opacity="1" stroke="#000000" fill="none" transform="matrix(0,-1,1,0,921.074,680.254)" stroke-linecap="square" font-size="31.75" font-style="normal" stroke-width="1" font-weight="400">
    <text font-family="osifont" fill-opacity="1" y="92" xml:space="preserve" stroke="none" x="4" fill="#000000" font-size="67" font-style="normal" font-weight="400">6</text>
   </g>
   <g font-family="SimSun" stroke-linejoin="bevel" stroke-opacity="1" stroke="#000000" fill="none" transform="matrix(1,0,0,1,1344.24,1015.18)" stroke-linecap="round" font-size="31.75" font-style="normal" stroke-width="3.5" font-weight="400">
    <path d="M-314.662,-650 L-314.662,-50 M-50,-50 L-342.662,-50 M-50,-650 L-342.662,-650" vector-effect="none" fill-rule="evenodd"/>
   </g>
   <g font-family="SimSun" stroke-linejoin="bevel" fill-opacity="1" stroke-opacity="1" stroke="#000000" fill="#000000" transform="matrix(1,0,0,1,1029.57,965.184)" stroke-linecap="round" font-size="31.75" font-style="normal" stroke-width="3.5" font-weight="400">
    <path d="M0,0 L5.83333,-35 L-5.83333,-35 L0,0" vector-effect="none" fill-rule="evenodd"/>
   </g>
   <g font-family="SimSun" stroke-linejoin="bevel" fill-opacity="1" stroke-opacity="1" stroke="#000000" fill="#000000" transform="matrix(1,0,0,1,1029.57,365.184)" stroke-linecap="round" font-size="31.75" font-style="normal" stroke-width="3.5" font-weight="400">
    <path d="M0,0 L-5.83333,35 L5.83333,35 L0,0" vector-effect="none" fill-rule="evenodd"/>
   </g>
   <g font-family="SimSun" stroke-linejoin="bevel" stroke-opacity="1" stroke="#000000" fill="none" transform="matrix(0,-1,1,0,922.878,1196.54)" stroke-linecap="square" font-size="31.75" font-style="normal" stroke-width="1" font-weight="400">
    <text font-family="osifont" fill-opacity="1" y="92" xml:space="preserve" stroke="none" x="4" fill="#000000" font-size="67" font-style="normal" font-weight="400">4</text>
   </g>
   <g font-family="SimSun" stroke-linejoin="bevel" stroke-opacity="1" stroke="#000000" fill="none" transform="matrix(1,0,0,1,1344.24,1015.18)" stroke-linecap="round" font-size="31.75" font-style="normal" stroke-width="3.5" font-weight="400">
    <path d="M-312.608,-50 L-312.608,350 M-100,350 L-340.608,350 M-100,-50 L-340.608,-50" vector-effect="none" fill-rule="evenodd"/>
   </g>
   <g font-family="SimSun" stroke-linejoin="bevel" fill-opacity="1" stroke-opacity="1" stroke="#000000" fill="#000000" transform="matrix(1,0,0,1,1031.63,1365.18)" stroke-linecap="round" font-size="31.75" font-style="normal" stroke-width="3.5" font-weight="400">
    <path d="M0,0 L5.83333,-35 L-5.83333,-35 L0,0" vector-effect="none" fill-rule="evenodd"/>
   </g>
   <g font-family="SimSun" stroke-linejoin="bevel" fill-opacity="1" stroke-opacity="1" stroke="#000000" fill="#000000" transform="matrix(1,0,0,1,1031.63,965.184)" stroke-linecap="round" font-size="31.75" font-style="normal" stroke-width="3.5" font-weight="400">
    <path d="M0,0 L-5.83333,35 L5.83333,35 L0,0" vector-effect="none" fill-rule="evenodd"/>
   </g>
   <g font-family="SimSun" stroke-linejoin="bevel" stroke-opacity="1" stroke="#000000" fill="none" transform="matrix(0,-1,1,0,924.972,1569.86)" stroke-linecap="square" font-size="31.75" font-style="normal" stroke-width="1" font-weight="400">
    <text font-family="osifont" fill-opacity="1" y="92" xml:space="preserve" stroke="none" x="4" fill="#000000" font-size="67" font-style="normal" font-weight="400">3</text>
   </g>
   <g font-family="SimSun" stroke-linejoin="bevel" stroke-opacity="1" stroke="#000000" fill="none" transform="matrix(1,0,0,1,1344.24,1015.18)" stroke-linecap="round" font-size="31.75" font-style="normal" stroke-width="3.5" font-weight="400">
    <path d="M-310.513,350 L-310.513,650 M-50,650 L-338.513,650 M-50,350 L-338.513,350" vector-effect="none" fill-rule="evenodd"/>
   </g>
   <g font-family="SimSun" stroke-linejoin="bevel" fill-opacity="1" stroke-opacity="1" stroke="#000000" fill="#000000" transform="matrix(1,0,0,1,1033.72,1665.18)" stroke-linecap="round" font-size="31.75" font-style="normal" stroke-width="3.5" font-weight="400">
    <path d="M0,0 L5.83333,-35 L-5.83333,-35 L0,0" vector-effect="none" fill-rule="evenodd"/>
   </g>
   <g font-family="SimSun" stroke-linejoin="bevel" fill-opacity="1" stroke-opacity="1" stroke="#000000" fill="#000000" transform="matrix(1,0,0,1,1033.72,1365.18)" stroke-linecap="round" font-size="31.75" font-style="normal" stroke-width="3.5" font-weight="400">
    <path d="M0,0 L-5.83333,35 L5.83333,35 L0,0" vector-effect="none" fill-rule="evenodd"/>
   </g>
   <g font-family="SimSun" stroke-linejoin="bevel" stroke-opacity="1" stroke="#000000" fill="none" transform="matrix(1,0,0,1,1328.93,1803.42)" stroke-linecap="square" font-size="31.75" font-style="normal" stroke-width="1" font-weight="400">
    <text font-family="osifont" fill-opacity="1" y="92" xml:space="preserve" stroke="none" x="4" fill="#000000" font-size="67" font-style="normal" font-weight="400">1</text>
   </g>
   <g font-family="SimSun" stroke-linejoin="bevel" stroke-opacity="1" stroke="#000000" fill="none" transform="matrix(1,0,0,1,1344.24,1015.18)" stroke-linecap="round" font-size="31.75" font-style="normal" stroke-width="3.5" font-weight="400">
    <path d="M-50,896.741 L50,896.741 M50,650 L50,924.741 M-50,650 L-50,924.741" vector-effect="none" fill-rule="evenodd"/>
   </g>
   <g font-family="SimSun" stroke-linejoin="bevel" fill-opacity="1" stroke-opacity="1" stroke="#000000" fill="#000000" transform="matrix(1,0,0,1,1394.24,1911.92)" stroke-linecap="round" font-size="31.75" font-style="normal" stroke-width="3.5" font-weight="400">
    <path d="M0,0 L-35,-5.83333 L-35,5.83333 L0,0" vector-effect="none" fill-rule="evenodd"/>
   </g>
   <g font-family="SimSun" stroke-linejoin="bevel" fill-opacity="1" stroke-opacity="1" stroke="#000000" fill="#000000" transform="matrix(1,0,0,1,1294.24,1911.92)" stroke-linecap="round" font-size="31.75" font-style="normal" stroke-width="3.5" font-weight="400">
    <path d="M0,0 L35,5.83333 L35,-5.83333 L0,0" vector-effect="none" fill-rule="evenodd"/>
   </g>
   <g font-family="SimSun" stroke-linejoin="bevel" stroke-opacity="1" stroke="#000000" fill="none" transform="matrix(1,0,0,1,1323.81,28.6484)" stroke-linecap="square" font-size="31.75" font-style="normal" stroke-width="1" font-weight="400">
    <text font-family="osifont" fill-opacity="1" y="92" xml:space="preserve" stroke="none" x="4" fill="#000000" font-size="67" font-style="normal" font-weight="400">2</text>
   </g>
   <g font-family="SimSun" stroke-linejoin="bevel" stroke-opacity="1" stroke="#000000" fill="none" transform="matrix(1,0,0,1,1344.24,1015.18)" stroke-linecap="round" font-size="31.75" font-style="normal" stroke-width="3.5" font-weight="400">
    <path d="M-100,-878.035 L100,-878.035 M100,-50 L100,-906.035 M-100,-50 L-100,-906.035" vector-effect="none" fill-rule="evenodd"/>
   </g>
   <g font-family="SimSun" stroke-linejoin="bevel" fill-opacity="1" stroke-opacity="1" stroke="#000000" fill="#000000" transform="matrix(1,0,0,1,1444.24,137.148)" stroke-linecap="round" font-size="31.75" font-style="normal" stroke-width="3.5" font-weight="400">
    <path d="M0,0 L-35,-5.83333 L-35,5.83333 L0,0" vector-effect="none" fill-rule="evenodd"/>
   </g>
   <g font-family="SimSun" stroke-linejoin="bevel" fill-opacity="1" stroke-opacity="1" stroke="#000000" fill="#000000" transform="matrix(1,0,0,1,1244.24,137.148)" stroke-linecap="round" font-size="31.75" font-style="normal" stroke-width="3.5" font-weight="400">
    <path d="M0,0 L35,5.83333 L35,-5.83333 L0,0" vector-effect="none" fill-rule="evenodd"/>
   </g>
   <g font-family="SimSun" fill-opacity="1" stroke="none" fill="#ffffff" transform="matrix(1,0,0,1,2235.41,1023.82)" font-size="31.75" font-style="normal" font-weight="400">
    <path d="M484.619,-222.06 C491.25,-225.888 494.975,-234.122 494.975,-244.949 C494.975,-261.461 486.361,-281.321 473.149,-295.267 C459.938,-309.214 444.731,-314.501 434.619,-308.663 L53.6566,-88.7137 C29.2549,-110.352 3.21862,-117.328 -14.6447,-107.015 L-297.487,56.2844 C-315.351,66.5977 -322.327,92.634 -315.789,124.586 L-484.619,222.06 C-498.427,230.032 -498.427,255.881 -484.619,279.795 C-470.812,303.71 -448.427,316.634 -434.619,308.663 L-265.789,211.188 C-241.387,232.826 -215.351,239.803 -197.487,229.489 L85.3553,66.1901 C98.6162,58.534 106.066,42.0673 106.066,20.4124 C106.066,13.2769 105.256,5.70459 103.657,-2.11114 L484.619,-222.06" vector-effect="non-scaling-stroke" fill-rule="evenodd"/>
   </g>
   <g font-family="SimSun" fill-opacity="1" stroke="none" fill="#ffffff" transform="matrix(1,0,0,1,2235.41,1023.82)" font-size="31.75" font-style="normal" font-weight="400">
    <path d="M-14.6447,-107.015 C-42.2589,-91.0719 -42.2589,-39.3742 -14.6447,8.4551 C12.9696,56.2844 57.7411,82.1332 85.3553,66.1901 L-197.487,229.489 C-215.351,239.803 -241.387,232.826 -265.789,211.188 C-290.19,189.55 -309.25,156.537 -315.789,124.586 C-322.327,92.634 -315.351,66.5977 -297.487,56.2844 L-14.6447,-107.015" vector-effect="non-scaling-stroke" fill-rule="evenodd"/>
   </g>
   <g font-family="SimSun" fill-opacity="1" stroke="none" fill="#ffffff" transform="matrix(1,0,0,1,2235.41,1023.82)" font-size="31.75" font-style="normal" font-weight="400">
    <path d="M434.619,-308.663 C420.812,-300.691 420.812,-274.842 434.619,-250.928 C448.427,-227.013 470.812,-214.089 484.619,-222.06 L103.657,-2.11114 L60.3553,22.8889 C46.5482,30.8604 24.1625,17.936 10.3553,-5.97866 C-3.45178,-29.8933 -3.45178,-55.7421 10.3553,-63.7137 L53.6566,-88.7137 L434.619,-308.663" vector-effect="non-scaling-stroke" fill-rule="evenodd"/>
   </g>
   <g font-family="SimSun" fill-opacity="1" stroke="none" fill="#ffffff" transform="matrix(1,0,0,1,2235.41,1023.82)" font-size="31.75" font-style="normal" font-weight="400">
    <path d="M-315.789,124.586 C-309.25,156.537 -290.19,189.55 -265.789,211.188 L-434.619,308.663 C-448.427,316.634 -470.812,303.71 -484.619,279.795 C-498.427,255.881 -498.427,230.032 -484.619,222.06 L-315.789,124.586" vector-effect="non-scaling-stroke" fill-rule="evenodd"/>
   </g>
   <g font-family="SimSun" fill-opacity="1" stroke="none" fill="#ffffff" transform="matrix(1,0,0,1,2235.41,1023.82)" font-size="31.75" font-style="normal" font-weight="400">
    <path d="M53.6566,-88.7137 C29.2549,-110.352 3.21862,-117.328 -14.6447,-107.015 C-42.2589,-91.0719 -42.2589,-39.3742 -14.6447,8.4551 C12.9696,56.2844 57.7411,82.1332 85.3553,66.1901 C98.6162,58.534 106.066,42.0673 106.066,20.4124 C106.066,13.2769 105.256,5.70459 103.657,-2.11114 L60.3553,22.8889 C46.5482,30.8604 24.1625,17.936 10.3553,-5.97866 C-3.45178,-29.8933 -3.45178,-55.7421 10.3553,-63.7137 L53.6566,-88.7137" vector-effect="non-scaling-stroke" fill-rule="evenodd"/>
   </g>
   <g font-family="SimSun" fill-opacity="1" stroke="none" fill="#ffffff" transform="matrix(1,0,0,1,2235.41,1023.82)" font-size="31.75" font-style="normal" font-weight="400">
    <path d="M484.619,-222.06 C491.25,-225.888 494.975,-234.122 494.975,-244.949 C494.975,-261.461 486.361,-281.321 473.149,-295.267 C459.938,-309.214 444.731,-314.501 434.619,-308.663 C420.812,-300.691 420.812,-274.842 434.619,-250.928 C448.427,-227.013 470.812,-214.089 484.619,-222.06 " vector-effect="non-scaling-stroke" fill-rule="evenodd"/>
   </g>
   <g font-family="SimSun" stroke-linejoin="bevel" stroke-opacity="1" stroke="#000000" fill="none" transform="matrix(1,0,0,1,2235.41,1023.82)" stroke-linecap="round" font-size="31.75" font-style="normal" stroke-width="7" font-weight="400">
    <path d="M-297.487,56.2844 C-325.102,72.2274 -325.102,123.925 -297.487,171.754 C-269.873,219.584 -225.102,245.433 -197.487,229.489 " vector-effect="none" fill-rule="evenodd"/>
   </g>
   <g font-family="SimSun" stroke-linejoin="bevel" stroke-opacity="1" stroke="#000000" fill="none" transform="matrix(1,0,0,1,2235.41,1023.82)" stroke-linecap="round" font-size="31.75" font-style="normal" stroke-width="7" font-weight="400">
    <path d="M106.066,20.4124 C106.066,13.2769 105.256,5.70459 103.657,-2.11114 " vector-effect="none" fill-rule="evenodd"/>
   </g>
   <g font-family="SimSun" stroke-linejoin="bevel" stroke-opacity="1" stroke="#000000" fill="none" transform="matrix(1,0,0,1,2235.41,1023.82)" stroke-linecap="round" font-size="31.75" font-style="normal" stroke-width="7" font-weight="400">
    <path d="M53.6566,-88.7137 C29.2549,-110.352 3.21862,-117.328 -14.6447,-107.015 " vector-effect="none" fill-rule="evenodd"/>
   </g>
   <g font-family="SimSun" stroke-linejoin="bevel" stroke-opacity="1" stroke="#000000" fill="none" transform="matrix(1,0,0,1,2235.41,1023.82)" stroke-linecap="round" font-size="31.75" font-style="normal" stroke-width="7" font-weight="400">
    <path d="M-14.6447,-107.015 C-42.2589,-91.0719 -42.2589,-39.3742 -14.6447,8.4551 C12.9696,56.2844 57.7411,82.1332 85.3553,66.1901 " vector-effect="none" fill-rule="evenodd"/>
   </g>
   <g font-family="SimSun" stroke-linejoin="bevel" stroke-opacity="1" stroke="#000000" fill="none" transform="matrix(1,0,0,1,2235.41,1023.82)" stroke-linecap="round" font-size="31.75" font-style="normal" stroke-width="7" font-weight="400">
    <path d="M85.3553,66.1901 C98.6162,58.534 106.066,42.0673 106.066,20.4124 " vector-effect="none" fill-rule="evenodd"/>
   </g>
   <g font-family="SimSun" stroke-linejoin="bevel" stroke-opacity="1" stroke="#000000" fill="none" transform="matrix(1,0,0,1,2235.41,1023.82)" stroke-linecap="round" font-size="31.75" font-style="normal" stroke-width="7" font-weight="400">
    <path d="M10.3553,-63.7137 C-3.45178,-55.7421 -3.45178,-29.8933 10.3553,-5.97866 C24.1625,17.936 46.5482,30.8604 60.3553,22.8889 " vector-effect="none" fill-rule="evenodd"/>
   </g>
   <g font-family="SimSun" stroke-linejoin="bevel" stroke-opacity="1" stroke="#000000" fill="none" transform="matrix(1,0,0,1,2235.41,1023.82)" stroke-linecap="round" font-size="31.75" font-style="normal" stroke-width="7" font-weight="400">
    <path d="M-484.619,222.06 C-498.427,230.032 -498.427,255.881 -484.619,279.795 C-470.812,303.71 -448.427,316.634 -434.619,308.663 " vector-effect="none" fill-rule="evenodd"/>
   </g>
   <g font-family="SimSun" stroke-linejoin="bevel" stroke-opacity="1" stroke="#000000" fill="none" transform="matrix(1,0,0,1,2235.41,1023.82)" stroke-linecap="round" font-size="31.75" font-style="normal" stroke-width="7" font-weight="400">
    <path d="M494.975,-244.949 C494.975,-261.461 486.361,-281.321 473.149,-295.267 C459.938,-309.214 444.731,-314.501 434.619,-308.663 " vector-effect="none" fill-rule="evenodd"/>
   </g>
   <g font-family="SimSun" stroke-linejoin="bevel" stroke-opacity="1" stroke="#000000" fill="none" transform="matrix(1,0,0,1,2235.41,1023.82)" stroke-linecap="round" font-size="31.75" font-style="normal" stroke-width="7" font-weight="400">
    <path d="M434.619,-308.663 C420.812,-300.691 420.812,-274.842 434.619,-250.928 C448.427,-227.013 470.812,-214.089 484.619,-222.06 " vector-effect="none" fill-rule="evenodd"/>
   </g>
   <g font-family="SimSun" stroke-linejoin="bevel" stroke-opacity="1" stroke="#000000" fill="none" transform="matrix(1,0,0,1,2235.41,1023.82)" stroke-linecap="round" font-size="31.75" font-style="normal" stroke-width="7" font-weight="400">
    <path d="M484.619,-222.06 C491.25,-225.888 494.975,-234.122 494.975,-244.949 " vector-effect="none" fill-rule="evenodd"/>
   </g>
   <g font-family="SimSun" stroke-linejoin="bevel" stroke-opacity="1" stroke="#000000" fill="none" transform="matrix(1,0,0,1,2235.41,1023.82)" stroke-linecap="round" font-size="31.75" font-style="normal" stroke-width="7" font-weight="400">
    <path d="M-14.6447,-107.015 L-297.487,56.2844" vector-effect="none" fill-rule="evenodd"/>
   </g>
   <g font-family="SimSun" stroke-linejoin="bevel" stroke-opacity="1" stroke="#000000" fill="none" transform="matrix(1,0,0,1,2235.41,1023.82)" stroke-linecap="round" font-size="31.75" font-style="normal" stroke-width="7" font-weight="400">
    <path d="M85.3553,66.1901 L-197.487,229.489" vector-effect="none" fill-rule="evenodd"/>
   </g>
   <g font-family="SimSun" stroke-linejoin="bevel" stroke-opacity="1" stroke="#000000" fill="none" transform="matrix(1,0,0,1,2235.41,1023.82)" stroke-linecap="round" font-size="31.75" font-style="normal" stroke-width="7" font-weight="400">
    <path d="M-315.789,124.586 L-484.619,222.06" vector-effect="none" fill-rule="evenodd"/>
   </g>
   <g font-family="SimSun" stroke-linejoin="bevel" stroke-opacity="1" stroke="#000000" fill="none" transform="matrix(1,0,0,1,2235.41,1023.82)" stroke-linecap="round" font-size="31.75" font-style="normal" stroke-width="7" font-weight="400">
    <path d="M-265.789,211.188 L-434.619,308.663" vector-effect="none" fill-rule="evenodd"/>
   </g>
   <g font-family="SimSun" stroke-linejoin="bevel" stroke-opacity="1" stroke="#000000" fill="none" transform="matrix(1,0,0,1,2235.41,1023.82)" stroke-linecap="round" font-size="31.75" font-style="normal" stroke-width="7" font-weight="400">
    <path d="M434.619,-308.663 L10.3553,-63.7137" vector-effect="none" fill-rule="evenodd"/>
   </g>
   <g font-family="SimSun" stroke-linejoin="bevel" stroke-opacity="1" stroke="#000000" fill="none" transform="matrix(1,0,0,1,2235.41,1023.82)" stroke-linecap="round" font-size="31.75" font-style="normal" stroke-width="7" font-weight="400">
    <path d="M484.619,-222.06 L60.3553,22.8889" vector-effect="none" fill-rule="evenodd"/>
   </g>
   <g font-family="SimSun" fill-opacity="1" stroke="none" fill="#ffffff" transform="matrix(1,0,0,1,2244.24,2119.41)" font-size="31.75" font-style="normal" font-weight="400">
    <path d="M650,-50 L650,50 L50,50 L50,62.349 L50,78.1831 L50,90.0969 L50,97.4928 L50,100 L-350,100 L-350,97.4928 L-350,90.0969 L-350,78.1831 L-350,62.349 L-350,50 L-650,50 L-650,-50 L-350,-50 L-350,-62.349 L-350,-78.1831 L-350,-90.0969 L-350,-97.4928 L-350,-100 L50,-100 L50,-97.4928 L50,-90.0969 L50,-78.1831 L50,-62.349 L50,-50 L650,-50" vector-effect="non-scaling-stroke" fill-rule="evenodd"/>
   </g>
   <g font-family="SimSun" fill-opacity="1" stroke="none" fill="#ffffff" transform="matrix(1,0,0,1,2244.24,2119.41)" font-size="31.75" font-style="normal" font-weight="400">
    <path d="M50,-100 L50,-97.4928 L50,-90.0969 L50,-78.1831 L50,-62.349 L50,-50 L50,-43.3884 L50,-22.2521 L50,1.33227e-14 L50,22.2521 L50,43.3884 L50,50 L50,62.349 L50,78.1831 L50,90.0969 L50,97.4928 L50,100 L-350,100 L-350,97.4928 L-350,90.0969 L-350,78.1831 L-350,62.349 L-350,50 L-350,43.3884 L-350,22.2521 L-350,1.33227e-14 L-350,-22.2521 L-350,-43.3884 L-350,-50 L-350,-62.349 L-350,-78.1831 L-350,-90.0969 L-350,-97.4928 L-350,-100 L50,-100" vector-effect="non-scaling-stroke" fill-rule="evenodd"/>
   </g>
   <g font-family="SimSun" fill-opacity="1" stroke="none" fill="#ffffff" transform="matrix(1,0,0,1,2244.24,2119.41)" font-size="31.75" font-style="normal" font-weight="400">
    <path d="M650,-50 L650,50 L50,50 L50,43.3884 L50,22.2521 L50,1.33227e-14 L50,-22.2521 L50,-43.3884 L50,-50 L650,-50" vector-effect="non-scaling-stroke" fill-rule="evenodd"/>
   </g>
   <g font-family="SimSun" fill-opacity="1" stroke="none" fill="#ffffff" transform="matrix(1,0,0,1,2244.24,2119.41)" font-size="31.75" font-style="normal" font-weight="400">
    <path d="M-350,-50 L-350,-43.3884 L-350,-22.2521 L-350,1.33227e-14 L-350,22.2521 L-350,43.3884 L-350,50 L-650,50 L-650,-50 L-350,-50" vector-effect="non-scaling-stroke" fill-rule="evenodd"/>
   </g>
   <g font-family="SimSun" stroke-linejoin="bevel" stroke-opacity="1" stroke="#000000" fill="none" transform="matrix(1,0,0,1,2244.24,2119.41)" stroke-linecap="round" font-size="31.75" font-style="normal" stroke-width="7" font-weight="400">
    <path d="M-350,-100 L-350,100" vector-effect="none" fill-rule="evenodd"/>
   </g>
   <g font-family="SimSun" stroke-linejoin="bevel" stroke-opacity="1" stroke="#000000" fill="none" transform="matrix(1,0,0,1,2244.24,2119.41)" stroke-linecap="round" font-size="31.75" font-style="normal" stroke-width="7" font-weight="400">
    <path d="M50,-100 L50,100" vector-effect="none" fill-rule="evenodd"/>
   </g>
   <g font-family="SimSun" stroke-linejoin="bevel" stroke-opacity="1" stroke="#000000" fill="none" transform="matrix(1,0,0,1,2244.24,2119.41)" stroke-linecap="round" font-size="31.75" font-style="normal" stroke-width="7" font-weight="400">
    <path d="M-650,-50 L-650,50" vector-effect="none" fill-rule="evenodd"/>
   </g>
   <g font-family="SimSun" stroke-linejoin="bevel" stroke-opacity="1" stroke="#000000" fill="none" transform="matrix(1,0,0,1,2244.24,2119.41)" stroke-linecap="round" font-size="31.75" font-style="normal" stroke-width="7" font-weight="400">
    <path d="M650,-50 L650,50" vector-effect="none" fill-rule="evenodd"/>
   </g>
   <g font-family="SimSun" stroke-linejoin="bevel" stroke-opacity="1" stroke="#000000" fill="none" transform="matrix(1,0,0,1,2244.24,2119.41)" stroke-linecap="round" font-size="31.75" font-style="normal" stroke-width="7" font-weight="400">
    <path d="M50,-100 L-350,-100" vector-effect="none" fill-rule="evenodd"/>
   </g>
   <g font-family="SimSun" stroke-linejoin="bevel" stroke-opacity="1" stroke="#000000" fill="none" transform="matrix(1,0,0,1,2244.24,2119.41)" stroke-linecap="round" font-size="31.75" font-style="normal" stroke-width="7" font-weight="400">
    <path d="M50,100 L-350,100" vector-effect="none" fill-rule="evenodd"/>
   </g>
   <g font-family="SimSun" stroke-linejoin="bevel" stroke-opacity="1" stroke="#000000" fill="none" transform="matrix(1,0,0,1,2244.24,2119.41)" stroke-linecap="round" font-size="31.75" font-style="normal" stroke-width="7" font-weight="400">
    <path d="M-350,-50 L-650,-50" vector-effect="none" fill-rule="evenodd"/>
   </g>
   <g font-family="SimSun" stroke-linejoin="bevel" stroke-opacity="1" stroke="#000000" fill="none" transform="matrix(1,0,0,1,2244.24,2119.41)" stroke-linecap="round" font-size="31.75" font-style="normal" stroke-width="7" font-weight="400">
    <path d="M-350,50 L-650,50" vector-effect="none" fill-rule="evenodd"/>
   </g>
   <g font-family="SimSun" stroke-linejoin="bevel" stroke-opacity="1" stroke="#000000" fill="none" transform="matrix(1,0,0,1,2244.24,2119.41)" stroke-linecap="round" font-size="31.75" font-style="normal" stroke-width="7" font-weight="400">
    <path d="M650,-50 L50,-50" vector-effect="none" fill-rule="evenodd"/>
   </g>
   <g font-family="SimSun" stroke-linejoin="bevel" stroke-opacity="1" stroke="#000000" fill="none" transform="matrix(1,0,0,1,2244.24,2119.41)" stroke-linecap="round" font-size="31.75" font-style="normal" stroke-width="7" font-weight="400">
    <path d="M650,50 L50,50" vector-effect="none" fill-rule="evenodd"/>
   </g>
  </g>
 </g>
</svg>
